<svg xmlns="http://www.w3.org/2000/svg" xmlns:xlink="http://www.w3.org/1999/xlink" width="500" zoomAndPan="magnify" viewBox="0 0 375 374.999991" height="500" preserveAspectRatio="xMidYMid meet" version="1.0"><defs><clipPath id="ef3ef5c50d"><path d="M 89 55 L 368 55 L 368 349 L 89 349 Z M 89 55 " clip-rule="nonzero"/></clipPath><clipPath id="a93a5f8a22"><path d="M 149.414062 37.5 L 385.425781 214.070312 L 225.480469 427.859375 L -10.53125 251.292969 Z M 149.414062 37.5 " clip-rule="nonzero"/></clipPath><clipPath id="88362fc81e"><path d="M 149.414062 37.5 L 385.425781 214.070312 L 225.480469 427.859375 L -10.53125 251.292969 Z M 149.414062 37.5 " clip-rule="nonzero"/></clipPath></defs><g clip-path="url(#ef3ef5c50d)"><g clip-path="url(#a93a5f8a22)"><g clip-path="url(#88362fc81e)"><path fill="#dedede" d="M 297.007812 258.433594 L 287.046875 250.980469 C 248.988281 222.507812 240.492188 189.316406 232.996094 160.035156 C 226.992188 136.558594 214.066406 110.503906 194.429688 95.8125 L 173.660156 80.277344 C 163.101562 72.375 147.945312 73.664062 139.53125 83.820312 C 139.003906 84.457031 138.511719 85.121094 138.046875 85.808594 C 137.585938 86.496094 137.164062 87.207031 136.773438 87.9375 C 136.382812 88.671875 136.03125 89.421875 135.71875 90.1875 C 135.40625 90.953125 135.132812 91.734375 134.898438 92.53125 C 134.664062 93.324219 134.46875 94.128906 134.316406 94.945312 C 134.164062 95.757812 134.050781 96.578125 133.980469 97.402344 C 133.914062 98.230469 133.882812 99.058594 133.898438 99.886719 C 133.910156 100.714844 133.96875 101.539062 134.066406 102.363281 C 134.164062 103.183594 134.300781 104 134.480469 104.808594 C 134.660156 105.617188 134.882812 106.417969 135.144531 107.203125 C 135.402344 107.988281 135.703125 108.761719 136.042969 109.515625 C 136.382812 110.273438 136.757812 111.011719 137.171875 111.730469 C 137.585938 112.445312 138.035156 113.140625 138.515625 113.816406 C 139 114.488281 139.519531 115.132812 140.066406 115.753906 C 140.617188 116.375 141.195312 116.964844 141.804688 117.527344 C 142.414062 118.089844 143.050781 118.617188 143.714844 119.117188 L 177.425781 144.335938 C 230.78125 184.253906 244.375 232.496094 213.785156 273.386719 L 213.730469 273.34375 C 213.765625 273.371094 213.773438 273.402344 213.746094 273.441406 L 171.277344 330.203125 C 170.363281 331.421875 169.390625 332.59375 168.359375 333.714844 C 167.328125 334.835938 166.246094 335.90625 165.105469 336.917969 C 163.96875 337.933594 162.785156 338.886719 161.550781 339.78125 C 160.316406 340.675781 159.042969 341.507812 157.726562 342.277344 C 156.410156 343.042969 155.058594 343.746094 153.671875 344.378906 C 152.285156 345.011719 150.871094 345.570312 149.429688 346.0625 C 147.984375 346.554688 146.523438 346.972656 145.039062 347.320312 C 143.554688 347.664062 142.054688 347.933594 140.542969 348.128906 C 139.035156 348.324219 137.515625 348.445312 135.992188 348.488281 C 134.46875 348.535156 132.949219 348.5 131.425781 348.394531 C 129.90625 348.285156 128.398438 348.101562 126.894531 347.84375 C 125.394531 347.582031 123.90625 347.25 122.441406 346.84375 C 120.972656 346.433594 119.527344 345.957031 118.105469 345.402344 C 116.6875 344.851562 115.296875 344.230469 113.9375 343.539062 C 112.578125 342.851562 111.257812 342.09375 109.976562 341.269531 C 108.691406 340.449219 107.453125 339.5625 106.261719 338.617188 C 86.757812 323.152344 83.785156 294.554688 98.707031 274.609375 L 165.046875 185.933594 C 165.4375 185.414062 165.871094 184.9375 166.351562 184.507812 C 166.835938 184.074219 167.351562 183.691406 167.910156 183.359375 C 168.46875 183.03125 169.050781 182.757812 169.660156 182.542969 C 170.273438 182.324219 170.898438 182.171875 171.539062 182.078125 C 172.179688 181.988281 172.824219 181.957031 173.46875 181.992188 C 174.117188 182.027344 174.753906 182.125 175.382812 182.285156 C 176.007812 182.445312 176.613281 182.664062 177.199219 182.941406 C 177.78125 183.222656 178.335938 183.554688 178.851562 183.945312 C 179.371094 184.332031 179.847656 184.765625 180.28125 185.25 C 180.714844 185.730469 181.09375 186.25 181.425781 186.804688 C 181.757812 187.363281 182.027344 187.945312 182.246094 188.558594 C 182.460938 189.167969 182.613281 189.792969 182.707031 190.433594 C 182.800781 191.074219 182.828125 191.71875 182.792969 192.367188 C 182.757812 193.011719 182.660156 193.648438 182.5 194.277344 C 182.34375 194.90625 182.121094 195.511719 181.84375 196.09375 C 181.5625 196.679688 181.230469 197.230469 180.84375 197.75 L 114.359375 286.613281 C 105.101562 298.988281 107.765625 316.566406 120.835938 324.808594 C 121.519531 325.238281 122.21875 325.636719 122.941406 326 C 123.660156 326.363281 124.394531 326.695312 125.148438 326.988281 C 125.898438 327.285156 126.660156 327.542969 127.4375 327.769531 C 128.210938 327.992188 128.996094 328.183594 129.789062 328.332031 C 130.582031 328.484375 131.378906 328.597656 132.183594 328.675781 C 132.988281 328.753906 133.792969 328.792969 134.601562 328.796875 C 135.40625 328.796875 136.210938 328.761719 137.015625 328.691406 C 137.820312 328.617188 138.617188 328.507812 139.414062 328.359375 C 140.207031 328.214844 140.992188 328.027344 141.769531 327.808594 C 142.542969 327.589844 143.308594 327.332031 144.0625 327.042969 C 144.816406 326.75 145.550781 326.425781 146.273438 326.066406 C 146.996094 325.703125 147.703125 325.3125 148.386719 324.886719 C 149.074219 324.460938 149.738281 324.003906 150.382812 323.515625 C 151.023438 323.027344 151.644531 322.511719 152.238281 321.96875 C 152.835938 321.421875 153.402344 320.851562 153.945312 320.253906 C 154.488281 319.65625 155 319.03125 155.484375 318.386719 L 197.953125 261.625 C 197.980469 261.589844 198.015625 261.585938 198.050781 261.613281 L 197.992188 261.570312 C 230.21875 218.496094 191.53125 179.523438 165.609375 160.128906 L 132.648438 135.472656 C 113.375 121.050781 108.347656 93.757812 122.171875 74.050781 C 123.023438 72.84375 123.929688 71.679688 124.894531 70.5625 C 125.863281 69.445312 126.882812 68.378906 127.953125 67.363281 C 129.027344 66.347656 130.148438 65.390625 131.316406 64.488281 C 132.484375 63.582031 133.695312 62.742188 134.949219 61.960938 C 136.203125 61.175781 137.492188 60.460938 138.816406 59.808594 C 140.140625 59.152344 141.496094 58.570312 142.878906 58.050781 C 144.261719 57.535156 145.667969 57.085938 147.097656 56.710938 C 148.523438 56.332031 149.96875 56.027344 151.425781 55.796875 C 152.886719 55.5625 154.351562 55.40625 155.828125 55.320312 C 157.300781 55.234375 158.777344 55.222656 160.253906 55.285156 C 161.726562 55.34375 163.195312 55.480469 164.660156 55.6875 C 166.121094 55.898438 167.570312 56.179688 169.003906 56.535156 C 170.4375 56.886719 171.851562 57.3125 173.242188 57.808594 C 174.632812 58.300781 175.996094 58.863281 177.332031 59.496094 C 178.667969 60.128906 179.96875 60.824219 181.234375 61.585938 C 182.5 62.347656 183.722656 63.171875 184.90625 64.054688 L 206.25 80.023438 C 231.4375 98.867188 245.757812 130.328125 252.113281 155.148438 C 259.144531 182.5625 266.375 210.882812 298.871094 235.195312 L 308.261719 242.21875 C 318.820312 250.121094 333.980469 248.824219 342.390625 238.667969 C 342.917969 238.03125 343.410156 237.367188 343.875 236.679688 C 344.335938 235.988281 344.757812 235.28125 345.148438 234.546875 C 345.539062 233.816406 345.890625 233.066406 346.203125 232.300781 C 346.515625 231.535156 346.789062 230.753906 347.023438 229.957031 C 347.257812 229.164062 347.453125 228.359375 347.605469 227.542969 C 347.757812 226.730469 347.871094 225.910156 347.9375 225.085938 C 348.007812 224.257812 348.035156 223.429688 348.023438 222.601562 C 348.007812 221.773438 347.953125 220.949219 347.855469 220.125 C 347.757812 219.304688 347.621094 218.488281 347.4375 217.679688 C 347.257812 216.871094 347.039062 216.074219 346.777344 215.285156 C 346.515625 214.5 346.214844 213.726562 345.878906 212.972656 C 345.539062 212.214844 345.164062 211.480469 344.75 210.761719 C 344.335938 210.042969 343.886719 209.347656 343.402344 208.675781 C 342.917969 208.003906 342.402344 207.355469 341.851562 206.738281 C 341.300781 206.117188 340.722656 205.527344 340.113281 204.964844 C 339.503906 204.402344 338.867188 203.875 338.203125 203.375 L 260.882812 145.53125 C 260.367188 145.140625 259.890625 144.707031 259.457031 144.226562 C 259.023438 143.742188 258.644531 143.226562 258.3125 142.667969 C 257.980469 142.109375 257.707031 141.527344 257.492188 140.917969 C 257.277344 140.304688 257.125 139.679688 257.03125 139.039062 C 256.9375 138.398438 256.910156 137.753906 256.945312 137.109375 C 256.980469 136.460938 257.074219 135.824219 257.234375 135.195312 C 257.394531 134.570312 257.617188 133.964844 257.894531 133.378906 C 258.175781 132.796875 258.507812 132.242188 258.894531 131.726562 C 259.285156 131.207031 259.71875 130.730469 260.199219 130.296875 C 260.679688 129.867188 261.199219 129.484375 261.757812 129.152344 C 262.3125 128.824219 262.898438 128.550781 263.507812 128.332031 C 264.121094 128.117188 264.746094 127.964844 265.386719 127.871094 C 266.027344 127.78125 266.671875 127.75 267.316406 127.785156 C 267.964844 127.820312 268.601562 127.917969 269.230469 128.078125 C 269.855469 128.238281 270.460938 128.457031 271.046875 128.734375 C 271.628906 129.015625 272.183594 129.347656 272.699219 129.734375 L 349.265625 187.015625 C 368.539062 201.4375 373.566406 228.730469 359.730469 248.425781 C 358.878906 249.636719 357.972656 250.796875 357.003906 251.914062 C 356.039062 253.03125 355.019531 254.097656 353.945312 255.113281 C 352.875 256.125 351.753906 257.085938 350.585938 257.988281 C 349.417969 258.890625 348.207031 259.734375 346.953125 260.515625 C 345.699219 261.296875 344.414062 262.015625 343.085938 262.667969 C 341.761719 263.320312 340.410156 263.90625 339.027344 264.421875 C 337.644531 264.941406 336.238281 265.386719 334.8125 265.765625 C 333.382812 266.140625 331.941406 266.445312 330.480469 266.679688 C 329.023438 266.910156 327.558594 267.070312 326.082031 267.15625 C 324.609375 267.242188 323.132812 267.253906 321.660156 267.191406 C 320.183594 267.132812 318.714844 266.996094 317.253906 266.789062 C 315.792969 266.578125 314.34375 266.300781 312.910156 265.945312 C 311.476562 265.59375 310.0625 265.167969 308.671875 264.675781 C 307.28125 264.179688 305.917969 263.617188 304.582031 262.988281 C 303.246094 262.355469 301.945312 261.660156 300.679688 260.898438 C 299.414062 260.140625 298.191406 259.316406 297.007812 258.433594 Z M 297.007812 258.433594 " fill-opacity="1" fill-rule="nonzero"/></g></g></g></svg>